<svg version="1.1" id="Layer_1" xmlns="http://www.w3.org/2000/svg" xmlns:xlink="http://www.w3.org/1999/xlink" x="0px" y="0px"
	 width="100%" viewBox="0 0 152 148" enable-background="new 0 0 152 148" xml:space="preserve">
<defs>
	<clipPath id="circleClip">
		<circle cx="76" cy="74" r="70"/>
	</clipPath>
</defs>
<g clip-path="url(#circleClip)">
<path fill="#FEFEFE" opacity="1.000000" stroke="none" 
	d="
M79.000000,149.000000 
	C52.688210,149.000000 26.876419,149.000000 1.032315,149.000000 
	C1.032315,99.729370 1.032315,50.458710 1.032315,1.094025 
	C51.561577,1.094025 102.123383,1.094025 152.842590,1.094025 
	C152.842590,50.332939 152.842590,99.666420 152.842590,149.000000 
	C128.459091,149.000000 103.979546,149.000000 79.000000,149.000000 
M120.458206,143.644302 
	C121.703682,144.175690 122.949158,144.707077 124.845543,145.516190 
	C125.198471,134.930222 126.003044,125.235985 122.483528,115.605400 
	C124.350166,113.102211 126.216805,110.599022 128.554871,107.602768 
	C128.968292,105.395195 130.516388,102.219467 129.600555,101.146103 
	C125.429359,96.257477 127.441063,92.530403 130.496277,88.283310 
	C135.159790,81.800537 135.139420,78.634285 129.815765,72.783089 
	C126.207626,68.817406 125.595398,65.177071 127.406433,60.156849 
	C130.782990,50.796967 129.803360,48.643524 121.289009,42.807713 
	C118.632240,40.986744 117.036247,39.111862 117.605537,35.433311 
	C118.586189,29.096779 114.634727,24.349144 108.043373,24.083752 
	C102.165703,23.847092 98.945732,21.313314 97.362724,15.670053 
	C95.764626,9.972991 90.164040,7.022453 84.755608,9.273082 
	C80.632751,10.988739 78.005409,10.037523 74.978477,7.245231 
	C70.681580,3.281426 64.892609,3.272615 60.942516,7.562425 
	C57.286003,11.533411 52.991146,13.096766 47.907978,13.884163 
	C36.068779,15.718091 32.238308,21.680859 35.761116,33.149368 
	C37.256474,38.017494 35.991302,40.865036 31.790625,43.482269 
	C24.418385,48.075550 23.180048,51.053936 26.336447,59.308868 
	C28.556944,65.116119 27.622990,69.251823 23.509720,73.671204 
	C19.024843,78.489845 18.990955,82.075035 22.989359,87.529327 
	C26.381845,92.157082 28.186249,95.935287 24.200434,101.680725 
	C20.436293,107.106613 24.267315,113.904388 30.308386,114.473640 
	C30.892736,114.979050 31.477085,115.484459 32.124283,116.765320 
	C27.472023,125.744789 29.122793,135.267395 29.087744,144.852524 
	C30.359554,144.852524 31.114183,145.067856 31.618689,144.804321 
	C32.471130,144.359055 33.165253,143.610703 34.795738,142.995758 
	C36.534031,142.990692 38.272320,142.985611 40.946442,142.998566 
	C65.300041,142.995483 89.653648,142.992386 114.863556,143.023041 
	C116.580177,143.029617 118.296791,143.036194 120.458206,143.644302 
z"/>
<path fill="#42434E" opacity="1.000000" stroke="none" 
	d="
M128.083450,108.095825 
	C126.216805,110.599022 124.350166,113.102211 121.905052,115.650604 
	C117.109535,112.602570 113.300400,108.304588 108.577461,106.705444 
	C101.906929,104.446854 94.500946,104.342804 88.951965,98.723900 
	C88.802757,98.009033 88.722672,97.599571 88.762520,96.841965 
	C89.580887,95.832008 90.180138,94.994911 90.992859,94.535080 
	C100.810226,88.980438 107.402512,81.012688 108.548096,69.559227 
	C109.470100,60.341076 110.361275,50.861549 105.514442,42.332912 
	C99.056358,30.969070 77.434006,26.306864 65.970055,33.785332 
	C63.305649,35.523453 61.165668,38.240715 59.215755,40.832047 
	C58.075737,42.347061 57.122055,44.543545 57.228733,46.366501 
	C57.863701,57.216969 50.696247,62.742573 42.647049,67.943634 
	C37.584244,60.803688 37.994564,55.877838 43.587765,52.220402 
	C51.484432,47.056721 51.989445,44.755756 48.930710,35.429909 
	C48.193031,33.180779 48.610298,29.310993 50.113899,27.841656 
	C52.782112,25.234228 56.526981,22.789989 60.111893,22.266397 
	C66.401688,21.347748 71.511490,19.339411 75.436501,14.008476 
	C78.898003,14.091088 82.126884,14.733666 84.988594,13.980716 
	C89.510384,12.790978 91.907326,14.121689 93.269463,18.390575 
	C95.444405,25.206722 100.391312,28.651096 107.363617,28.901171 
	C111.752472,29.058586 113.528938,31.161009 112.944626,35.181797 
	C112.132530,40.770004 114.558060,44.648830 119.198395,47.005245 
	C124.577141,49.736633 125.268448,53.770771 122.928246,58.541176 
	C119.548416,65.430794 121.245224,70.974464 126.475845,76.013466 
	C129.435883,78.865074 129.915970,82.089592 126.888725,85.175446 
	C120.023956,92.173119 121.582237,99.034164 126.949280,105.954338 
	C127.436966,106.583145 127.710480,107.378052 128.083450,108.095825 
z"/>
<path fill="#D5F3FB" opacity="1.000000" stroke="none" 
	d="
M114.007248,142.989288 
	C89.653648,142.992386 65.300041,142.995483 40.475136,142.532578 
	C40.003178,140.076523 39.931171,138.083466 40.014038,136.096878 
	C40.404018,126.747887 44.400024,119.664734 53.026203,115.494652 
	C54.767902,114.652687 56.441502,113.669846 58.481388,112.851532 
	C74.458908,123.970154 91.555260,126.514229 109.965179,122.103668 
	C113.481873,128.909302 114.557182,135.791199 114.007248,142.989288 
z"/>
<path fill="#5A5F7A" opacity="1.000000" stroke="none" 
	d="
M109.911133,121.715424 
	C91.555260,126.514229 74.458908,123.970154 58.263176,112.555832 
	C55.323395,111.445076 52.861423,109.936226 50.563320,110.154289 
	C41.592598,111.005547 34.443092,118.563004 33.865368,127.641624 
	C33.541195,132.735764 33.883766,137.872345 33.925945,142.989792 
	C33.165253,143.610703 32.471130,144.359055 31.618689,144.804321 
	C31.114183,145.067856 30.359554,144.852524 29.087744,144.852524 
	C29.122793,135.267395 27.472023,125.744789 32.383934,116.241760 
	C34.095936,114.148239 35.548290,112.578293 37.270042,110.891479 
	C38.037201,110.189484 38.534969,109.604355 39.013512,109.013939 
	C38.994293,109.008652 39.022530,109.038162 39.387344,108.990524 
	C44.800106,107.622627 50.057522,106.801331 54.820366,104.801910 
	C57.857647,103.526871 60.869110,100.947205 62.610081,98.153526 
	C64.620796,94.926994 60.950390,93.611031 58.839088,91.844994 
	C55.932472,89.413704 52.843063,86.936775 50.786983,83.844406 
	C49.383350,81.733337 49.610886,78.537727 49.469063,75.877182 
	C51.045341,77.110069 52.512585,78.124878 53.435493,79.503967 
	C57.931801,86.222740 63.549667,91.184044 72.275383,92.355171 
	C86.504845,94.139633 98.366562,87.707222 102.171211,75.149040 
	C104.046082,68.960564 103.780128,62.032536 103.912544,55.427723 
	C104.129822,44.589821 98.169037,37.270218 87.429939,35.737473 
	C82.429779,35.023819 77.123886,35.429691 72.095139,36.215214 
	C66.638039,37.067642 62.099903,42.106140 62.143032,47.318882 
	C62.206070,54.936485 58.954750,60.738403 53.582150,66.043106 
	C51.492870,68.121895 49.705177,70.055710 47.551933,71.974396 
	C45.797840,71.631210 44.409290,71.303154 43.017242,70.604332 
	C43.012684,69.492363 43.011623,68.751144 43.010559,68.009933 
	C50.696247,62.742573 57.863701,57.216969 57.228733,46.366501 
	C57.122055,44.543545 58.075737,42.347061 59.215755,40.832047 
	C61.165668,38.240715 63.305649,35.523453 65.970055,33.785332 
	C77.434006,26.306864 99.056358,30.969070 105.514442,42.332912 
	C110.361275,50.861549 109.470100,60.341076 108.548096,69.559227 
	C107.402512,81.012688 100.810226,88.980438 90.992859,94.535080 
	C90.180138,94.994911 89.580887,95.832008 88.491928,96.655228 
	C81.649887,97.286285 75.198372,97.755928 68.517746,98.242249 
	C66.429955,101.301575 63.953617,104.930237 61.466404,108.574837 
	C72.317513,117.773727 90.853363,121.926964 104.380272,118.004852 
	C106.804146,118.324455 108.858055,118.648621 110.877441,119.267563 
	C110.532326,120.280029 110.221725,120.997726 109.911133,121.715424 
z"/>
<path fill="#585F7B" opacity="1.000000" stroke="none" 
	d="
M128.319153,107.849304 
	C127.710480,107.378052 127.436966,106.583145 126.949280,105.954338 
	C121.582237,99.034164 120.023956,92.173119 126.888725,85.175446 
	C129.915970,82.089592 129.435883,78.865074 126.475845,76.013466 
	C121.245224,70.974464 119.548416,65.430794 122.928246,58.541176 
	C125.268448,53.770771 124.577141,49.736633 119.198395,47.005245 
	C114.558060,44.648830 112.132530,40.770004 112.944626,35.181797 
	C113.528938,31.161009 111.752472,29.058586 107.363617,28.901171 
	C100.391312,28.651096 95.444405,25.206722 93.269463,18.390575 
	C91.907326,14.121689 89.510384,12.790978 84.988594,13.980716 
	C82.126884,14.733666 78.898003,14.091088 75.271103,13.713148 
	C69.230087,8.253250 67.750641,7.867177 63.976940,11.585773 
	C60.038292,15.466921 55.655430,17.520222 50.054161,18.299088 
	C39.176178,19.811686 37.482262,23.023352 40.664772,33.410664 
	C42.492653,39.376633 41.443119,42.235878 36.051495,45.978649 
	C29.024912,50.856373 28.354540,51.114666 31.316278,58.801525 
	C34.101250,66.029617 32.433487,71.286331 27.294968,76.223259 
	C24.344206,79.058258 24.897148,82.131813 26.825644,85.210526 
	C27.613331,86.468025 28.536671,87.648247 29.471277,88.804634 
	C32.845005,92.978935 32.625847,96.956238 29.892838,101.588455 
	C28.644224,103.704750 29.194643,106.957176 29.179300,109.695732 
	C29.171305,111.122993 29.706360,112.553307 29.996124,113.982239 
	C24.267315,113.904388 20.436293,107.106613 24.200434,101.680725 
	C28.186249,95.935287 26.381845,92.157082 22.989359,87.529327 
	C18.990955,82.075035 19.024843,78.489845 23.509720,73.671204 
	C27.622990,69.251823 28.556944,65.116119 26.336447,59.308868 
	C23.180048,51.053936 24.418385,48.075550 31.790625,43.482269 
	C35.991302,40.865036 37.256474,38.017494 35.761116,33.149368 
	C32.238308,21.680859 36.068779,15.718091 47.907978,13.884163 
	C52.991146,13.096766 57.286003,11.533411 60.942516,7.562425 
	C64.892609,3.272615 70.681580,3.281426 74.978477,7.245231 
	C78.005409,10.037523 80.632751,10.988739 84.755608,9.273082 
	C90.164040,7.022453 95.764626,9.972991 97.362724,15.670053 
	C98.945732,21.313314 102.165703,23.847092 108.043373,24.083752 
	C114.634727,24.349144 118.586189,29.096779 117.605537,35.433311 
	C117.036247,39.111862 118.632240,40.986744 121.289009,42.807713 
	C129.803360,48.643524 130.782990,50.796967 127.406433,60.156849 
	C125.595398,65.177071 126.207626,68.817406 129.815765,72.783089 
	C135.139420,78.634285 135.159790,81.800537 130.496277,88.283310 
	C127.441063,92.530403 125.429359,96.257477 129.600555,101.146103 
	C130.516388,102.219467 128.968292,105.395195 128.319153,107.849304 
z"/>
<path fill="#4D4E59" opacity="1.000000" stroke="none" 
	d="
M30.152256,114.227936 
	C29.706360,112.553307 29.171305,111.122993 29.179300,109.695732 
	C29.194643,106.957176 28.644224,103.704750 29.892838,101.588455 
	C32.625847,96.956238 32.845005,92.978935 29.471277,88.804634 
	C28.536671,87.648247 27.613331,86.468025 26.825644,85.210526 
	C24.897148,82.131813 24.344206,79.058258 27.294968,76.223259 
	C32.433487,71.286331 34.101250,66.029617 31.316278,58.801525 
	C28.354540,51.114666 29.024912,50.856373 36.051495,45.978649 
	C41.443119,42.235878 42.492653,39.376633 40.664772,33.410664 
	C37.482262,23.023352 39.176178,19.811686 50.054161,18.299088 
	C55.655430,17.520222 60.038292,15.466921 63.976940,11.585773 
	C67.750641,7.867177 69.230087,8.253250 74.873810,13.647211 
	C71.511490,19.339411 66.401688,21.347748 60.111893,22.266397 
	C56.526981,22.789989 52.782112,25.234228 50.113899,27.841656 
	C48.610298,29.310993 48.193031,33.180779 48.930710,35.429909 
	C51.989445,44.755756 51.484432,47.056721 43.587765,52.220402 
	C37.994564,55.877838 37.584244,60.803688 42.647049,67.943634 
	C43.011623,68.751144 43.012684,69.492363 42.743027,70.836349 
	C41.106297,74.005600 40.079422,76.842194 38.298496,79.078201 
	C35.274612,82.874786 32.473568,86.659752 36.207176,91.227455 
	C40.586517,96.585159 42.955341,101.971107 39.025135,108.545952 
	C38.952648,108.667213 39.020279,108.872223 39.022530,109.038162 
	C39.022530,109.038162 38.994293,109.008652 38.687775,109.046173 
	C37.921051,109.725243 37.460850,110.366798 37.000645,111.008347 
	C35.548290,112.578293 34.095936,114.148239 32.352509,115.854027 
	C31.477085,115.484459 30.892736,114.979050 30.152256,114.227936 
z"/>
<path fill="#5A617D" opacity="1.000000" stroke="none" 
	d="
M89.021088,99.029312 
	C94.500946,104.342804 101.906929,104.446854 108.577461,106.705444 
	C113.300400,108.304588 117.109535,112.602570 121.623886,115.835587 
	C126.003044,125.235985 125.198471,134.930222 124.845543,145.516190 
	C122.949158,144.707077 121.703682,144.175690 120.329575,142.877853 
	C120.216660,137.674835 120.895523,133.108063 120.057335,128.839157 
	C119.255394,124.754868 116.876434,120.980232 115.016785,116.760948 
	C110.440056,110.257088 103.913666,109.726601 96.909637,109.578659 
	C94.903801,108.416969 92.951935,107.736542 91.422638,106.523407 
	C89.067543,104.655212 86.702225,102.515381 89.021088,99.029312 
z"/>
<path fill="#E5F5FA" opacity="1.000000" stroke="none" 
	d="
M34.360840,142.992767 
	C33.883766,137.872345 33.541195,132.735764 33.865368,127.641624 
	C34.443092,118.563004 41.592598,111.005547 50.563320,110.154289 
	C52.861423,109.936226 55.323395,111.445076 57.928291,112.456253 
	C56.441502,113.669846 54.767902,114.652687 53.026203,115.494652 
	C44.400024,119.664734 40.404018,126.747887 40.014038,136.096878 
	C39.931171,138.083466 40.003178,140.076523 40.007225,142.523560 
	C38.272320,142.985611 36.534031,142.990692 34.360840,142.992767 
z"/>
<path fill="#BCEDFA" opacity="1.000000" stroke="none" 
	d="
M115.190613,117.069489 
	C116.876434,120.980232 119.255394,124.754868 120.057335,128.839157 
	C120.895523,133.108063 120.216660,137.674835 120.107178,142.577087 
	C118.296791,143.036194 116.580177,143.029617 114.435402,143.006165 
	C114.557182,135.791199 113.481873,128.909302 109.965179,122.103668 
	C110.221725,120.997726 110.532326,120.280029 111.193451,119.149368 
	C112.759529,118.180763 113.975075,117.625130 115.190613,117.069489 
z"/>
<path fill="#C29680" opacity="1.000000" stroke="none" 
	d="
M88.951965,98.723900 
	C86.702225,102.515381 89.067543,104.655212 91.422638,106.523407 
	C92.951935,107.736542 94.903801,108.416969 96.858109,109.982193 
	C98.058670,112.253159 98.873993,114.053383 100.137589,115.447212 
	C101.144920,116.558365 102.698959,117.173882 104.010307,118.009415 
	C90.853363,121.926964 72.317513,117.773727 61.466404,108.574837 
	C63.953617,104.930237 66.429955,101.301575 68.517746,98.242249 
	C75.198372,97.755928 81.649887,97.286285 88.372002,97.003380 
	C88.722672,97.599571 88.802757,98.009033 88.951965,98.723900 
z"/>
<path fill="#DFB6A3" opacity="1.000000" stroke="none" 
	d="
M53.883736,65.898125 
	C58.954750,60.738403 62.206070,54.936485 62.143032,47.318882 
	C62.099903,42.106140 66.638039,37.067642 72.095139,36.215214 
	C77.123886,35.429691 82.429779,35.023819 87.429939,35.737473 
	C98.169037,37.270218 104.129822,44.589821 103.912544,55.427723 
	C103.780128,62.032536 104.046082,68.960564 102.171211,75.149040 
	C98.366562,87.707222 86.504845,94.139633 72.287094,91.935638 
	C72.663307,87.841522 70.813309,86.029366 68.270309,83.995720 
	C64.745361,81.176796 61.600754,77.779060 58.744038,74.262939 
	C56.735245,71.790459 55.477077,68.708138 53.883736,65.898125 
z"/>
<path fill="#42434E" opacity="1.000000" stroke="none" 
	d="
M39.387344,108.990524 
	C39.020279,108.872223 38.952648,108.667213 39.025135,108.545952 
	C42.955341,101.971107 40.586517,96.585159 36.207176,91.227455 
	C32.473568,86.659752 35.274612,82.874786 38.298496,79.078201 
	C40.079422,76.842194 41.106297,74.005600 42.746525,71.207108 
	C44.409290,71.303154 45.797840,71.631210 47.672150,72.289299 
	C48.474987,73.688560 48.792057,74.757782 49.109123,75.827011 
	C49.610886,78.537727 49.383350,81.733337 50.786983,83.844406 
	C52.843063,86.936775 55.932472,89.413704 58.839088,91.844994 
	C60.950390,93.611031 64.620796,94.926994 62.610081,98.153526 
	C60.869110,100.947205 57.857647,103.526871 54.820366,104.801910 
	C50.057522,106.801331 44.800106,107.622627 39.387344,108.990524 
z"/>
<path fill="#EECEC0" opacity="1.000000" stroke="none" 
	d="
M49.469063,75.877182 
	C48.792057,74.757782 48.474987,73.688560 48.037701,72.304428 
	C49.705177,70.055710 51.492870,68.121895 53.582150,66.043106 
	C55.477077,68.708138 56.735245,71.790459 58.744038,74.262939 
	C61.600754,77.779060 64.745361,81.176796 68.270309,83.995720 
	C70.813309,86.029366 72.663307,87.841522 71.970558,91.680626 
	C63.549667,91.184044 57.931801,86.222740 53.435493,79.503967 
	C52.512585,78.124878 51.045341,77.110069 49.469063,75.877182 
z"/>
<path fill="#9F7867" opacity="1.000000" stroke="none" 
	d="
M104.380272,118.004852 
	C102.698959,117.173882 101.144920,116.558365 100.137589,115.447212 
	C98.873993,114.053383 98.058670,112.253159 97.101410,110.224785 
	C103.913666,109.726601 110.440056,110.257088 115.016785,116.760956 
	C113.975075,117.625130 112.759529,118.180763 111.227974,118.854591 
	C108.858055,118.648621 106.804146,118.324455 104.380272,118.004852 
z"/>
<path fill="#42434E" opacity="1.000000" stroke="none" 
	d="
M37.270042,110.891479 
	C37.460850,110.366798 37.921051,109.725243 38.706993,109.051460 
	C38.534969,109.604355 38.037201,110.189484 37.270042,110.891479 
z"/>
</g>
</svg>